<svg id="Layer_1" data-name="Layer 1" xmlns="http://www.w3.org/2000/svg" viewBox="0 0 429.67 86"><defs><style>.cls-1,.cls-5{fill:#3aaa35;}.cls-2,.cls-7{fill:#e6007e;}.cls-3{fill:#fbba00;}.cls-4{fill:#009fe3;}.cls-5,.cls-6,.cls-7{font-size:98.69px;font-family:AdobeArabic-Bold, Adobe Arabic;font-weight:700;}.cls-6{fill:#1d1d1b;}</style></defs><path class="cls-1" d="M71.62,56.88c3.32,9,.33,18.36-6.68,20.95s-15.4-2.57-18.72-11.55-.33-18.35,6.69-21S68.3,47.91,71.62,56.88"/><path class="cls-2" d="M75.71,33.52C72,46.16,62,54.35,53.32,51.82S40.6,37,44.29,24.35,58,3.51,66.68,6.05s12.72,14.83,9,27.47"/><path class="cls-3" d="M18.11,58.13c-3.32,9-.33,18.35,6.69,20.95S40.19,76.5,43.51,67.53s.33-18.36-6.68-21-15.4,2.58-18.72,11.56"/><path class="cls-4" d="M39.12,25.59c5.33,12,3,24.76-5.3,28.43S14.53,50.9,9.19,38.86s-3-24.77,5.3-28.43,19.29,3.12,24.63,15.16"/><text class="cls-5" transform="translate(92.69 70.66) scale(1 1.02)">Liban</text><text class="cls-6" transform="translate(273.36 70.66) scale(1 1.02)"> </text><text class="cls-7" transform="translate(277.28 70.66) scale(1 1.02)">bébé</text></svg>