<svg id="Layer_1" data-name="Layer 1" xmlns="http://www.w3.org/2000/svg" viewBox="0 0 220.67 228.67"><defs><style>.cls-1{fill:#3aaa35;}.cls-2{fill:#e6007e;}.cls-3{fill:#fbba00;}.cls-4{fill:#009fe3;}</style></defs><path class="cls-1" d="M198,154.66c9.72,26.26,1,53.72-19.56,61.31s-45-7.54-54.76-33.8-1-53.72,19.56-61.32,45,7.54,54.76,33.81"/><path class="cls-2" d="M210,86.28c-10.8,37-40.14,61-65.53,53.56s-37.22-43.4-26.42-80.39,40.13-61,65.52-53.56S220.8,49.29,210,86.28"/><path class="cls-3" d="M41.45,158.29c-9.72,26.27-1,53.72,19.56,61.32s45-7.54,54.76-33.81,1-53.72-19.56-61.31-45,7.54-54.76,33.8"/><path class="cls-4" d="M102.91,63.08c15.62,35.23,8.69,72.47-15.49,83.2S31,137.14,15.35,101.92,6.66,29.44,30.84,18.72s56.45,9.13,72.07,44.36"/></svg>