<?xml version="1.0" encoding="UTF-8"?>
<svg id="Layer_2" xmlns="http://www.w3.org/2000/svg" viewBox="0 0 1905.76 2065.07">
  <defs>
    <style>
      .cls-1 {
        fill: #6a4dff;
      }

      .cls-2 {
        fill: #6e5fff;
      }

      .cls-3 {
        fill: #5143dd;
      }
    </style>
  </defs>
  <g id="Layer_1-2" data-name="Layer_1">
    <g>
      <g>
        <path class="cls-2" d="M1905.76,531.93l-389.02,155.89v520.42c0,104.73-59.49,199.66-151.84,242.28l-412.02,190.16v424.38l821.97-438.6c81.06-43.25,130.91-122.7,130.91-208.63v-885.9Z"/>
        <path class="cls-3" d="M0,531.93l389.02,155.89v520.42c0,104.73,59.49,199.66,151.84,242.28l412.02,190.16v424.38l-821.97-438.6C49.85,1583.21,0,1503.76,0,1417.84v-885.9Z"/>
        <path class="cls-1" d="M1905.76,531.93l-389.02,155.89-472.9-258.09c-79.15-43.19-174.31-40.46-251.03,7.2l-403.79,250.89L0,531.93,804.68,34.67c80.34-44.36,180.37-46.27,262.66-5.02l838.43,502.28Z"/>
      </g>
      <g>
        <path class="cls-3" d="M494.73,730.78l461.83,208.64-5.6,579.67-360.03-158.16c-60.09-26.4-97.52-80.85-96.17-139.91l-.04-490.24Z"/>
        <path class="cls-2" d="M1406.9,730.78l-450.34,208.64-5.6,579.67,325.04-141.91c83.33-36.38,135.75-111.38,135.02-193.19l-4.12-453.2Z"/>
        <path class="cls-1" d="M1406.9,730.78l-395.42-199.78c-58.48-27.97-129.68-25.52-185.49,6.38l-331.26,193.41,461.83,208.64,450.34-208.64Z"/>
      </g>
    </g>
  </g>
</svg>